<svg id="visual" viewBox="0 0 1920 1080" width="1920" height="1080" xmlns="http://www.w3.org/2000/svg" xmlns:xlink="http://www.w3.org/1999/xlink" version="1.1"><path d="M0 44L35.5 45.8C71 47.7 142 51.3 213.2 56.8C284.3 62.3 355.7 69.7 426.8 69.7C498 69.7 569 62.3 640 58.7C711 55 782 55 853.2 56.8C924.3 58.7 995.7 62.3 1066.8 62.3C1138 62.3 1209 58.7 1280 60.5C1351 62.3 1422 69.7 1493.2 66C1564.3 62.3 1635.7 47.7 1706.8 40.3C1778 33 1849 33 1884.5 33L1920 33L1920 0L1884.5 0C1849 0 1778 0 1706.8 0C1635.7 0 1564.3 0 1493.2 0C1422 0 1351 0 1280 0C1209 0 1138 0 1066.8 0C995.7 0 924.3 0 853.2 0C782 0 711 0 640 0C569 0 498 0 426.8 0C355.7 0 284.3 0 213.2 0C142 0 71 0 35.5 0L0 0Z" fill="#54d6c1"></path><path d="M0 98L35.5 110.7C71 123.3 142 148.7 213.2 159.5C284.3 170.3 355.7 166.7 426.8 170.2C498 173.7 569 184.3 640 177.2C711 170 782 145 853.2 137.8C924.3 130.7 995.7 141.3 1066.8 146.7C1138 152 1209 152 1280 150.2C1351 148.3 1422 144.7 1493.2 133.8C1564.3 123 1635.7 105 1706.8 110.5C1778 116 1849 145 1884.5 159.5L1920 174L1920 31L1884.5 31C1849 31 1778 31 1706.8 38.3C1635.7 45.7 1564.3 60.3 1493.2 64C1422 67.7 1351 60.3 1280 58.5C1209 56.7 1138 60.3 1066.8 60.3C995.7 60.3 924.3 56.7 853.2 54.8C782 53 711 53 640 56.7C569 60.3 498 67.7 426.8 67.7C355.7 67.7 284.3 60.3 213.2 54.8C142 49.3 71 45.7 35.5 43.8L0 42Z" fill="#47d1bb"></path><path d="M0 249L35.5 277.8C71 306.7 142 364.3 213.2 380.7C284.3 397 355.7 372 426.8 377.5C498 383 569 419 640 401C711 383 782 311 853.2 302C924.3 293 995.7 347 1066.8 356C1138 365 1209 329 1280 330.7C1351 332.3 1422 371.7 1493.2 389.7C1564.3 407.7 1635.7 404.3 1706.8 402.7C1778 401 1849 401 1884.5 401L1920 401L1920 172L1884.5 157.5C1849 143 1778 114 1706.8 108.5C1635.7 103 1564.3 121 1493.2 131.8C1422 142.7 1351 146.3 1280 148.2C1209 150 1138 150 1066.8 144.7C995.7 139.3 924.3 128.7 853.2 135.8C782 143 711 168 640 175.2C569 182.3 498 171.7 426.8 168.2C355.7 164.7 284.3 168.3 213.2 157.5C142 146.7 71 121.3 35.5 108.7L0 96Z" fill="#38ccb5"></path><path d="M0 411L35.5 438C71 465 142 519 213.2 522.7C284.3 526.3 355.7 479.7 426.8 483.3C498 487 569 541 640 537.3C711 533.7 782 472.3 853.2 461.5C924.3 450.7 995.7 490.3 1066.8 495.8C1138 501.3 1209 472.7 1280 487.2C1351 501.7 1422 559.3 1493.2 589.8C1564.3 620.3 1635.7 623.7 1706.8 621.8C1778 620 1849 613 1884.5 609.5L1920 606L1920 399L1884.5 399C1849 399 1778 399 1706.8 400.7C1635.7 402.3 1564.3 405.7 1493.2 387.7C1422 369.7 1351 330.3 1280 328.7C1209 327 1138 363 1066.8 354C995.7 345 924.3 291 853.2 300C782 309 711 381 640 399C569 417 498 381 426.8 375.5C355.7 370 284.3 395 213.2 378.7C142 362.3 71 304.7 35.5 275.8L0 247Z" fill="#25c7ae"></path><path d="M0 714L35.5 721.2C71 728.3 142 742.7 213.2 739C284.3 735.3 355.7 713.7 426.8 724.5C498 735.3 569 778.7 640 782.3C711 786 782 750 853.2 724.8C924.3 699.7 995.7 685.3 1066.8 694.3C1138 703.3 1209 735.7 1280 759C1351 782.3 1422 796.7 1493.2 796.7C1564.3 796.7 1635.7 782.3 1706.8 778.7C1778 775 1849 782 1884.5 785.5L1920 789L1920 604L1884.5 607.5C1849 611 1778 618 1706.8 619.8C1635.7 621.7 1564.3 618.3 1493.2 587.8C1422 557.3 1351 499.7 1280 485.2C1209 470.7 1138 499.3 1066.8 493.8C995.7 488.3 924.3 448.7 853.2 459.5C782 470.3 711 531.7 640 535.3C569 539 498 485 426.8 481.3C355.7 477.7 284.3 524.3 213.2 520.7C142 517 71 463 35.5 436L0 409Z" fill="#00c2a8"></path><path d="M0 811L35.5 818.2C71 825.3 142 839.7 213.2 828.8C284.3 818 355.7 782 426.8 796.5C498 811 569 876 640 890.5C711 905 782 869 853.2 842C924.3 815 995.7 797 1066.8 795.2C1138 793.3 1209 807.7 1280 822C1351 836.3 1422 850.7 1493.2 852.5C1564.3 854.3 1635.7 843.7 1706.8 845.5C1778 847.3 1849 861.7 1884.5 868.8L1920 876L1920 787L1884.5 783.5C1849 780 1778 773 1706.8 776.7C1635.7 780.3 1564.3 794.7 1493.2 794.7C1422 794.7 1351 780.3 1280 757C1209 733.7 1138 701.3 1066.8 692.3C995.7 683.3 924.3 697.7 853.2 722.8C782 748 711 784 640 780.3C569 776.7 498 733.3 426.8 722.5C355.7 711.7 284.3 733.3 213.2 737C142 740.7 71 726.3 35.5 719.2L0 712Z" fill="#00b59d"></path><path d="M0 962L35.5 962C71 962 142 962 213.2 953C284.3 944 355.7 926 426.8 931.5C498 937 569 966 640 973.2C711 980.3 782 965.7 853.2 951.2C924.3 936.7 995.7 922.3 1066.8 924.2C1138 926 1209 944 1280 951.2C1351 958.3 1422 954.7 1493.2 951.2C1564.3 947.7 1635.7 944.3 1706.8 951.7C1778 959 1849 977 1884.5 986L1920 995L1920 874L1884.5 866.8C1849 859.7 1778 845.3 1706.8 843.5C1635.7 841.7 1564.3 852.3 1493.2 850.5C1422 848.7 1351 834.3 1280 820C1209 805.7 1138 791.3 1066.8 793.2C995.7 795 924.3 813 853.2 840C782 867 711 903 640 888.5C569 874 498 809 426.8 794.5C355.7 780 284.3 816 213.2 826.8C142 837.7 71 823.3 35.5 816.2L0 809Z" fill="#00a891"></path><path d="M0 1049L35.5 1043.5C71 1038 142 1027 213.2 1019.7C284.3 1012.3 355.7 1008.7 426.8 1014.2C498 1019.7 569 1034.3 640 1032.7C711 1031 782 1013 853.2 1004C924.3 995 995.7 995 1066.8 996.7C1138 998.3 1209 1001.7 1280 1010.7C1351 1019.7 1422 1034.3 1493.2 1032.7C1564.3 1031 1635.7 1013 1706.8 1013C1778 1013 1849 1031 1884.5 1040L1920 1049L1920 993L1884.5 984C1849 975 1778 957 1706.8 949.7C1635.7 942.3 1564.3 945.7 1493.2 949.2C1422 952.7 1351 956.3 1280 949.2C1209 942 1138 924 1066.8 922.2C995.7 920.3 924.3 934.7 853.2 949.2C782 963.7 711 978.3 640 971.2C569 964 498 935 426.8 929.5C355.7 924 284.3 942 213.2 951C142 960 71 960 35.5 960L0 960Z" fill="#009b86"></path><path d="M0 1081L35.5 1081C71 1081 142 1081 213.2 1081C284.3 1081 355.7 1081 426.8 1081C498 1081 569 1081 640 1081C711 1081 782 1081 853.2 1081C924.3 1081 995.7 1081 1066.8 1081C1138 1081 1209 1081 1280 1081C1351 1081 1422 1081 1493.2 1081C1564.3 1081 1635.7 1081 1706.8 1081C1778 1081 1849 1081 1884.5 1081L1920 1081L1920 1047L1884.5 1038C1849 1029 1778 1011 1706.8 1011C1635.7 1011 1564.3 1029 1493.2 1030.7C1422 1032.3 1351 1017.7 1280 1008.7C1209 999.7 1138 996.3 1066.8 994.7C995.7 993 924.3 993 853.2 1002C782 1011 711 1029 640 1030.7C569 1032.3 498 1017.7 426.8 1012.2C355.7 1006.7 284.3 1010.3 213.2 1017.7C142 1025 71 1036 35.5 1041.5L0 1047Z" fill="#008e7b"></path></svg>